<?xml version="1.0" encoding="UTF-8" standalone="no"?>
<!-- Created with Inkscape (http://www.inkscape.org/) -->

<svg
   xmlns:dc="http://purl.org/dc/elements/1.1/"
   xmlns:cc="http://creativecommons.org/ns#"
   xmlns:rdf="http://www.w3.org/1999/02/22-rdf-syntax-ns#"
   xmlns:svg="http://www.w3.org/2000/svg"
   xmlns="http://www.w3.org/2000/svg"
   xmlns:sodipodi="http://sodipodi.sourceforge.net/DTD/sodipodi-0.dtd"
   xmlns:inkscape="http://www.inkscape.org/namespaces/inkscape"
   width="1920"
   height="1080"
   id="svg4836"
   version="1.1"
   inkscape:version="0.91 r13725"
   viewBox="0 0 1920 1080"
   sodipodi:docname="bg1.svg">
  <defs
     id="defs4838" />
  <sodipodi:namedview
     id="base"
     pagecolor="#ffffff"
     bordercolor="#666666"
     borderopacity="1.0"
     inkscape:pageopacity="0.0"
     inkscape:pageshadow="2"
     inkscape:zoom="0.33550744"
     inkscape:cx="960"
     inkscape:cy="580"
     inkscape:document-units="px"
     inkscape:current-layer="layer1"
     showgrid="true"
     inkscape:window-width="1366"
     inkscape:window-height="709"
     inkscape:window-x="0"
     inkscape:window-y="27"
     inkscape:window-maximized="1">
    <inkscape:grid
       type="xygrid"
       id="grid5408" />
  </sodipodi:namedview>
  <metadata
     id="metadata4841">
    <rdf:RDF>
      <cc:Work
         rdf:about="">
        <dc:format>image/svg+xml</dc:format>
        <dc:type
           rdf:resource="http://purl.org/dc/dcmitype/StillImage" />
        <dc:title></dc:title>
      </cc:Work>
    </rdf:RDF>
  </metadata>
  <g
     id="layer1"
     inkscape:label="Layer 1"
     inkscape:groupmode="layer">
    <rect
       style="opacity:1;fill:#170420;fill-opacity:1"
       id="rect5385"
       width="1928"
       height="1105.8833"
       x="-2"
       y="-14" />
    <g
       id="g4259"
       transform="matrix(0.29066003,0,0,0.29066003,-561.52742,181.88302)">
      <path
         id="path3416"
         d="m 5234.1562,-81.699219 a 812.86133,812.86133 0 0 0 -812.8613,812.861329 812.86133,812.86133 0 0 0 29.4336,216.5918 l 101.2949,-81.03711 86.7051,4.33593 69.3633,-69.36523 82.3711,69.36523 78.0351,0 43.3516,-60.69335 34.6816,34.68164 82.3711,-108.38282 95.375,-26.01172 69.3653,-91.03906 86.7051,-30.34765 65.0273,86.70507 52.0234,21.67578 130.0586,125.72266 91.041,-8.66992 56.3575,-52.02344 112.7168,82.3711 26.0117,-30.34766 43.3515,73.69922 43.3536,-39.01758 119.4824,86.52344 a 812.86133,812.86133 0 0 0 27.2461,-204.73633 812.86133,812.86133 0 0 0 -812.8614,-812.861329 z"
         style="fill:#ea1646;fill-opacity:1"
         inkscape:connector-curvature="0" />
      <circle
         r="132.79788"
         cy="426.14423"
         cx="4857.1489"
         id="path3418"
         style="fill:#c61340;fill-opacity:1" />
    </g>
  </g>
</svg>
