<?xml version="1.0" encoding="UTF-8" standalone="no"?>
<!-- Generator: Adobe Illustrator 16.0.0, SVG Export Plug-In . SVG Version: 6.00 Build 0)  -->

<svg
   xmlns:dc="http://purl.org/dc/elements/1.1/"
   xmlns:cc="http://creativecommons.org/ns#"
   xmlns:rdf="http://www.w3.org/1999/02/22-rdf-syntax-ns#"
   xmlns:svg="http://www.w3.org/2000/svg"
   xmlns="http://www.w3.org/2000/svg"
   xmlns:sodipodi="http://sodipodi.sourceforge.net/DTD/sodipodi-0.dtd"
   xmlns:inkscape="http://www.inkscape.org/namespaces/inkscape"
   version="1.1"
   id="Capa_1"
   x="0px"
   y="0px"
   width="512px"
   height="512px"
   viewBox="0 0 67.025 67.026"
   style="enable-background:new 0 0 67.025 67.026;"
   xml:space="preserve"
   inkscape:version="0.91 r13725"
   sodipodi:docname="blog-comment-speech-bubble-symbol (copy).svg"><metadata
     id="metadata47"><rdf:RDF><cc:Work
         rdf:about=""><dc:format>image/svg+xml</dc:format><dc:type
           rdf:resource="http://purl.org/dc/dcmitype/StillImage" /></cc:Work></rdf:RDF></metadata><defs
     id="defs45" /><sodipodi:namedview
     pagecolor="#ffffff"
     bordercolor="#666666"
     borderopacity="1"
     objecttolerance="10"
     gridtolerance="10"
     guidetolerance="10"
     inkscape:pageopacity="0"
     inkscape:pageshadow="2"
     inkscape:window-width="1366"
     inkscape:window-height="709"
     id="namedview43"
     showgrid="false"
     inkscape:zoom="0.83364868"
     inkscape:cx="256"
     inkscape:cy="256"
     inkscape:window-x="0"
     inkscape:window-y="27"
     inkscape:window-maximized="1"
     inkscape:current-layer="Capa_1" /><g
     id="g13" /><g
     id="g15" /><g
     id="g17" /><g
     id="g19" /><g
     id="g21" /><g
     id="g23" /><g
     id="g25" /><g
     id="g27" /><g
     id="g29" /><g
     id="g31" /><g
     id="g33" /><g
     id="g35" /><g
     id="g37" /><g
     id="g39" /><g
     id="g41" /><g
     transform="matrix(0.17960668,0,0,0.17960666,-52.828649,2.5903598)"
     style="fill:none;fill-rule:evenodd;stroke:none;stroke-width:1"
     id="g4246"><path
       inkscape:connector-curvature="0"
       id="path4181"
       d="m 447.46253,236.85495 -33.19601,-102.11812 33.59127,-0.33891 c 18.47519,-0.1864 48.64201,-0.1864 67.03738,0 l 33.44612,0.33891 -33.128,102.11194 c -18.22039,56.16158 -33.44901,102.11473 -33.84137,102.11813 -0.39236,0.003 -15.65158,-45.94698 -33.90939,-102.11195 z"
       style="opacity:1;fill:#170420;fill-opacity:1;fill-rule:evenodd;stroke:#170420;stroke-width:0;stroke-miterlimit:4;stroke-dasharray:none;stroke-opacity:1" /><path
       inkscape:connector-curvature="0"
       id="path4183"
       d="m 484.19487,336.21742 c 0.23948,-1.16567 15.03736,-47.10643 32.88418,-102.09057 l 32.44874,-99.97117 46.92019,-0.0276 c 37.34338,-0.0219 46.67055,0.29711 45.69718,1.56308 -16.84342,21.90643 -155.2653,199.39377 -156.55411,200.73686 -1.62377,1.69214 -1.7822,1.66825 -1.39618,-0.21065 z"
       style="opacity:1;fill:#170420;fill-opacity:1;fill-rule:evenodd;stroke:#170420;stroke-width:0;stroke-miterlimit:4;stroke-dasharray:none;stroke-opacity:1" /><path
       inkscape:connector-curvature="0"
       id="path4185"
       d="m 550.67702,130.78172 c 0.4319,-1.1255 9.08109,-27.60941 19.22043,-58.853116 10.13934,-31.243716 19.34332,-59.241494 20.45329,-62.2172834 2.42202,-6.4933615 7.01229,-8.4821232 10.65964,-4.6183544 1.90472,2.0177426 42.04616,122.7655338 42.04616,126.4773038 0,0.80585 -16.73847,1.25781 -46.58239,1.25781 -42.27603,0 -46.5098,-0.18918 -45.79713,-2.04636 z"
       style="opacity:1;fill:#170420;fill-opacity:1;fill-rule:evenodd;stroke:#170420;stroke-width:0;stroke-miterlimit:4;stroke-dasharray:none;stroke-opacity:1" /><path
       inkscape:connector-curvature="0"
       id="path4187"
       d="m 489.85487,332.9287 c 17.44175,-23.0051 153.31282,-196.43435 154.05936,-196.64523 0.53374,-0.15078 5.72428,14.3278 11.53455,32.17461 10.55136,32.40957 11.21749,36.01991 7.54709,40.90418 -1.60999,2.14247 -174.69611,128.33831 -176.02464,128.33831 -0.40384,0 0.8938,-2.14734 2.88364,-4.77187 z"
       style="opacity:1;fill:#170420;fill-opacity:1;fill-rule:evenodd;stroke:#170420;stroke-width:0;stroke-miterlimit:4;stroke-dasharray:none;stroke-opacity:1" /><path
       inkscape:connector-curvature="0"
       id="path4189"
       d="m 465.32108,321.50557 c -6.97175,-8.93957 -31.21844,-40.01768 -53.88154,-69.06249 -22.66309,-29.04482 -52.59433,-67.41069 -66.51386,-85.2575 l -25.30823,-32.44875 46.16043,-0.33425 c 25.38823,-0.18383 46.55215,0.10248 47.03093,0.63625 1.1292,1.25891 66.14576,201.76288 65.60133,202.30732 -0.22724,0.22723 -6.11731,-6.90103 -13.08906,-15.84058 z"
       style="opacity:1;fill:#170420;fill-opacity:1;fill-rule:evenodd;stroke:#170420;stroke-width:0;stroke-miterlimit:4;stroke-dasharray:none;stroke-opacity:1" /><path
       inkscape:connector-curvature="0"
       id="path4191"
       d="m 323.05684,119.78496 c 2.36676,-7.17372 11.54378,-35.375493 20.39337,-62.670616 8.84959,-27.295123 16.9813,-50.6295905 18.07048,-51.8543717 1.08917,-1.2247812 2.94806,-2.2268749 4.13087,-2.2268749 1.1828,0 3.04029,1.0020937 4.12774,2.2268749 1.08746,1.2247812 9.50487,25.4181857 18.70535,53.7631217 9.20049,28.344936 18.37984,56.546706 20.39856,62.670616 l 3.6704,11.13437 -46.9,0 -46.89999,0 4.30322,-13.04312 z"
       style="opacity:1;fill:#170420;fill-opacity:1;fill-rule:evenodd;stroke:#170420;stroke-width:0;stroke-miterlimit:4;stroke-dasharray:none;stroke-opacity:1" /><path
       inkscape:connector-curvature="0"
       id="path4193"
       d="m 387.42414,274.16847 c -47.86439,-34.84894 -87.78469,-64.73026 -88.71178,-66.40292 -0.92709,-1.67267 -1.70591,-4.08457 -1.73071,-5.35977 -0.0555,-2.85525 20.60482,-67.06116 21.54652,-66.95984 0.37243,0.0401 31.8852,40.15461 70.02838,89.1434 90.87793,116.71811 88.11403,113.12429 86.92487,113.02604 -0.56712,-0.0468 -40.19289,-28.59796 -88.05728,-63.44691 z"
       style="opacity:1;fill:#170420;fill-opacity:1;fill-rule:evenodd;stroke:#170420;stroke-width:0;stroke-miterlimit:4;stroke-dasharray:none;stroke-opacity:1" /></g></svg>